<?xml version="1.0" encoding="utf-8"?>
<!-- Generator: Adobe Illustrator 27.6.1, SVG Export Plug-In . SVG Version: 6.00 Build 0)  -->
<svg version="1.1" id="레이어_1" xmlns="http://www.w3.org/2000/svg" xmlns:xlink="http://www.w3.org/1999/xlink" x="0px"
	 y="0px" viewBox="0 0 17 17" enable-background="new 0 0 17 17" xml:space="preserve">
<g>
	<path fill="none" stroke="#5D5A51" stroke-linecap="round" stroke-linejoin="round" d="M9.071,1.011l6.918,6.918
		c0.315,0.315,0.315,0.826,0,1.141l-6.918,6.918c-0.315,0.315-0.826,0.315-1.141,0L1.011,9.071c-0.315-0.315-0.315-0.826,0-1.141
		l6.918-6.918C8.245,0.696,8.755,0.696,9.071,1.011z"/>
	<g>
		<g>
			<path fill="#5D5A51" d="M8.953,4.543H8.047c-0.069,0-0.124,0.135-0.117,0.29l0.212,4.755c0.006,0.135,0.056,0.237,0.117,0.237
				h0.488c0.06,0,0.111-0.103,0.117-0.238L9.07,4.833C9.076,4.678,9.022,4.543,8.953,4.543L8.953,4.543z"/>
		</g>
		<g>
			<path fill="#5D5A51" d="M8.5,11.199c-0.347,0-0.629,0.282-0.629,0.629c0,0.347,0.282,0.629,0.629,0.629
				c0.347,0,0.629-0.282,0.629-0.629C9.129,11.48,8.847,11.199,8.5,11.199L8.5,11.199z"/>
		</g>
	</g>
</g>
</svg>
