<?xml version="1.0" encoding="UTF-8"?><svg id="a" xmlns="http://www.w3.org/2000/svg" viewBox="0 0 88 88"><circle cx="44" cy="44" r="42.823" fill="#dcefda"/><path d="m62.831,33.308c2.52,3.922,3.557,8.656,3.557,13.532,0,12.13-9.728,17.713-22.388,17.713s-22.388-5.582-22.388-17.713c0-4.887,1.731-9.622,4.617-13.544,0,0-3.25-14.556,8.385-7.255,3.133-1.649,6.642-2.603,10.328-2.603,4.346,0,8.232,1.331,11.471,3.568,0,0,12.107-3.674,6.419,6.289v.012Z" fill="#6ae26a"/><path d="m62.831,33.308c2.52,3.922,3.557,8.656,3.557,13.532,0,12.13-9.728,17.713-22.388,17.713s-22.388-5.582-22.388-17.713c0-4.887,1.731-9.622,4.617-13.544" fill="none" stroke="#5d5a51" stroke-linecap="round" stroke-linejoin="round" stroke-width="2"/><path d="m34.613,26.042c3.133-1.649,6.642-2.603,10.328-2.603,4.346,0,8.232,1.331,11.471,3.568" fill="none" stroke="#5d5a51" stroke-linecap="round" stroke-linejoin="round" stroke-width="2"/><path d="m26.228,33.297s-3.25-14.556,8.385-7.255" fill="none" stroke="#5d5a51" stroke-linecap="round" stroke-linejoin="round" stroke-width="2"/><path d="m56.413,27.008s12.107-3.674,6.419,6.289v.012c-.612,1.072-1.437,2.308-2.509,3.722" fill="none" stroke="#5d5a51" stroke-linecap="round" stroke-linejoin="round" stroke-width="2"/></svg>