<?xml version="1.0" encoding="UTF-8"?><svg id="_레이어_1" xmlns="http://www.w3.org/2000/svg" viewBox="0 0 17 17"><defs></defs><path class="cls-1" d="m14.04,8.5v6.87s-.02.05-.05.05H3.01s-.05-.02-.05-.05v-6.87"/><rect class="cls-1" x="1.58" y="5.04" width="13.84" height="3.46" rx=".05" ry=".05"/><line class="cls-1" x1="8.5" y1="15.42" x2="8.5" y2="5.04"/><path class="cls-1" d="m8.44,5.04h-2.92c-.89,0-1.72-.6-1.85-1.48-.15-1.07.67-1.98,1.71-1.98,2.24,0,3,2.96,3.1,3.4,0,.03-.02.06-.05.06Z"/><path class="cls-1" d="m8.56,5.04h2.92c.89,0,1.72-.6,1.85-1.48.15-1.07-.67-1.98-1.71-1.98-2.24,0-3,2.96-3.1,3.4,0,.03.02.06.05.06Z"/></svg>