<?xml version="1.0" encoding="UTF-8"?><svg id="_레이어_1" xmlns="http://www.w3.org/2000/svg" viewBox="0 0 17 17"><defs></defs><path class="cls-1" d="m14.18,9.09v3.96c0,.94-.69,1.71-1.54,1.71H4.36c-.85,0-1.54-.77-1.54-1.71v-3.96"/><path class="cls-1" d="m1.64,7.44l1.02-4.5c.09-.41.5-.71.97-.71h9.75c.47,0,.87.3.97.71l1.02,4.5"/><path class="cls-1" d="m6.21,7.44c0,1.04-1.02,1.88-2.29,1.88s-2.29-.84-2.29-1.88"/><path class="cls-1" d="m10.79,7.44c0,1.04-1.02,1.88-2.29,1.88s-2.29-.84-2.29-1.88"/><path class="cls-1" d="m15.36,7.44c0,1.04-1.02,1.88-2.29,1.88s-2.29-.84-2.29-1.88"/><line class="cls-1" x1="6.21" y1="7.44" x2="6.7" y2="2.23"/><line class="cls-1" x1="10.79" y1="7.44" x2="10.3" y2="2.23"/></svg>